<?xml version="1.0" standalone="no"?>
<!DOCTYPE svg PUBLIC "-//W3C//DTD SVG 20010904//EN"
 "http://www.w3.org/TR/2001/REC-SVG-20010904/DTD/svg10.dtd">
<svg version="1.0" xmlns="http://www.w3.org/2000/svg"
 width="700.000000pt" height="700.000000pt" viewBox="0 0 700.000000 700.000000"
 preserveAspectRatio="xMidYMid meet">
<metadata>
Created by potrace 1.11, written by Peter Selinger 2001-2013
</metadata>
<g transform="translate(0.000000,700.000000) scale(0.100000,-0.100000)"
fill="#000000" stroke="none">
<path d="M1716 5489 c-118 -19 -255 -117 -318 -226 -103 -178 -73 -414 71
-560 249 -253 665 -155 782 184 24 70 25 198 3 274 -49 167 -201 301 -370 329
-67 11 -99 11 -168 -1z"/>
<path d="M3405 5494 c-120 -25 -192 -62 -264 -134 -273 -273 -118 -738 265
-793 368 -53 645 327 486 666 -36 77 -123 169 -199 210 -80 43 -213 66 -288
51z"/>
<path d="M5089 5173 c-35 -19 -64 -43 -84 -71 -27 -40 -30 -51 -30 -125 0 -73
3 -86 27 -122 55 -79 151 -119 236 -97 71 19 118 57 148 118 22 46 26 64 22
119 -5 83 -41 137 -117 177 -71 37 -129 37 -202 1z"/>
<path d="M1716 3989 c-118 -19 -255 -117 -318 -226 -103 -178 -73 -414 71
-560 249 -253 665 -155 782 184 24 70 25 198 3 274 -49 167 -201 301 -370 329
-67 11 -99 11 -168 -1z"/>
<path d="M5034 3986 c-210 -48 -364 -240 -364 -454 0 -413 500 -626 792 -338
252 248 157 665 -178 780 -69 23 -177 28 -250 12z"/>
<path d="M3435 3681 c-221 -101 -153 -425 90 -425 129 0 219 90 219 219 0 163
-164 273 -309 206z"/>
<path d="M1668 2311 c-298 -95 -424 -442 -257 -703 86 -134 231 -211 394 -211
98 0 174 22 252 72 138 89 213 229 213 396 0 210 -135 389 -339 449 -72 21
-191 20 -263 -3z"/>
<path d="M3340 2311 c-88 -28 -140 -60 -202 -122 -225 -224 -159 -609 128
-746 188 -90 395 -53 540 95 210 213 162 575 -98 727 -109 64 -256 82 -368 46z"/>
<path d="M5095 2011 c-171 -79 -166 -333 7 -405 77 -33 182 -14 242 42 88 82
88 242 0 324 -62 58 -171 75 -249 39z"/>
</g>
</svg>
